<svg width="24" height="24" viewBox="0 0 24 24" fill="none" xmlns="http://www.w3.org/2000/svg">
<g clip-path="url(#clip0_6_1565)">
<path fill-rule="evenodd" clip-rule="evenodd" d="M13.0639 3.03945C13.1408 3.03803 13.189 3.12122 13.1519 3.18859C11.6887 5.84512 11.6106 9.17983 13.2376 11.998C14.8647 14.8161 17.7917 16.4158 20.8239 16.4769C20.9008 16.4785 20.9487 16.5618 20.909 16.6277C20.1526 17.8837 19.0765 18.9713 17.7169 19.7563C13.4321 22.2301 7.95311 20.762 5.47927 16.4772C3.00544 12.1924 4.47352 6.71347 8.75833 4.23964C10.118 3.45463 11.5979 3.06655 13.0639 3.03945Z" fill="#FEDF2C"/>
<path fill-rule="evenodd" clip-rule="evenodd" d="M8.29553 13.1136C8.2754 13.0332 8.19399 12.9844 8.11366 13.0045C8.03329 13.0246 7.98442 13.106 8.00451 13.1864L8.15004 13.15C8.00451 13.1864 8.0045 13.1864 8.00451 13.1864L8.0049 13.188L8.00568 13.1909L8.0084 13.201C8.01074 13.2096 8.01415 13.2216 8.01871 13.2366C8.02781 13.2666 8.04152 13.3087 8.06037 13.359C8.09788 13.459 8.15666 13.5937 8.24159 13.7295C8.40877 13.997 8.69843 14.3 9.15004 14.3C9.60164 14.3 9.8913 13.997 10.0585 13.7295C10.1434 13.5937 10.2022 13.459 10.2397 13.359C10.2585 13.3087 10.2723 13.2666 10.2814 13.2366C10.2859 13.2216 10.2893 13.2096 10.2917 13.201L10.2944 13.1909L10.2952 13.188L10.2955 13.1867C10.2955 13.1866 10.2956 13.1864 10.15 13.15L10.2955 13.1867C10.3156 13.1063 10.2668 13.0246 10.1864 13.0045C10.1061 12.9844 10.0247 13.0332 10.0045 13.1136M10.0045 13.1136L10.0042 13.1149L10.0024 13.1215C10.0007 13.1276 9.99804 13.1371 9.9943 13.1494C9.9868 13.1741 9.97511 13.2101 9.9588 13.2536C9.926 13.3411 9.87541 13.4564 9.80409 13.5705C9.65877 13.803 9.44843 14 9.15004 14C8.85164 14 8.6413 13.803 8.49599 13.5705C8.42466 13.4564 8.37407 13.3411 8.34127 13.2536C8.32496 13.2101 8.31327 13.1741 8.30577 13.1494C8.30203 13.1371 8.29934 13.1276 8.29766 13.1215L8.29587 13.1149L8.29553 13.1136C8.29552 13.1135 8.29554 13.1136 8.29553 13.1136" fill="#393939"/>
<circle cx="6.85714" cy="11.8571" r="0.857143" fill="#393939"/>
<circle cx="7.11429" cy="11.6" r="0.257143" fill="white"/>
<circle cx="11.8571" cy="11.8571" r="0.857143" fill="#393939"/>
<circle cx="12.1143" cy="11.6" r="0.257143" fill="white"/>
<path d="M17.4123 7.16033C17.4502 7.09099 17.5498 7.09099 17.5877 7.16033L18.2576 8.38454C18.272 8.4108 18.2973 8.42925 18.3268 8.4348L19.6981 8.69357C19.7757 8.70822 19.8065 8.80293 19.7523 8.86043L18.795 9.8758C18.7744 9.89759 18.7647 9.92744 18.7685 9.95713L18.9462 11.3413C18.9563 11.4197 18.8757 11.4782 18.8043 11.4444L17.5428 10.8477C17.5157 10.8349 17.4843 10.8349 17.4572 10.8477L16.1957 11.4444C16.1243 11.4782 16.0437 11.4197 16.0538 11.3413L16.2315 9.95713C16.2353 9.92744 16.2256 9.89759 16.205 9.8758L15.2477 8.86043C15.1935 8.80293 15.2243 8.70822 15.3019 8.69357L16.6732 8.4348C16.7027 8.42925 16.728 8.4108 16.7424 8.38454L17.4123 7.16033Z" fill="#FEDF2C"/>
<path d="M20.4123 3.16033C20.4502 3.09099 20.5498 3.09099 20.5877 3.16033L20.9455 3.81412C20.9598 3.84039 20.9852 3.85884 21.0146 3.86439L21.747 4.00259C21.8247 4.01724 21.8554 4.11195 21.8012 4.16945L21.29 4.71172C21.2694 4.7335 21.2597 4.76335 21.2635 4.79305L21.3584 5.53225C21.3685 5.61064 21.2879 5.66918 21.2165 5.63538L20.5428 5.31672C20.5157 5.30392 20.4843 5.30392 20.4572 5.31672L19.7835 5.63538C19.7121 5.66917 19.6315 5.61064 19.6416 5.53225L19.7365 4.79305C19.7403 4.76335 19.7306 4.7335 19.71 4.71172L19.1988 4.16945C19.1446 4.11195 19.1753 4.01724 19.253 4.00259L19.9854 3.86439C20.0148 3.85884 20.0402 3.84039 20.0545 3.81412L20.4123 3.16033Z" fill="#FEDF2C"/>
</g>
<defs>
<clipPath id="clip0_6_1565">
<rect width="24" height="24" fill="white"/>
</clipPath>
</defs>
</svg>
