<svg width="24" height="24" viewBox="0 0 24 24" fill="none" xmlns="http://www.w3.org/2000/svg">
<path fill-rule="evenodd" clip-rule="evenodd" d="M5 18C3.34315 18 2 16.6569 2 15C2 13.3431 3.34315 12 5 12C5.35419 12 5.69404 12.0614 6.0095 12.1741C6.17814 9.28823 8.57185 7 11.5 7C13.7467 7 15.6788 8.34714 16.5326 10.2777C16.9869 10.0985 17.482 10 18 10C20.2091 10 22 11.7909 22 14C22 16.2091 20.2091 18 18 18H11.5H5Z" fill="#F3F4FF"/>
<path fill-rule="evenodd" clip-rule="evenodd" d="M11.1091 14.4726C11.094 14.4124 11.033 14.3758 10.9727 14.3909C10.9124 14.4059 10.8758 14.467 10.8909 14.5273L11 14.5C10.8909 14.5273 10.8908 14.5272 10.8909 14.5273L10.8911 14.5284L10.8917 14.5307L10.8938 14.5383C10.8955 14.5446 10.8981 14.5536 10.9015 14.5649C10.9083 14.5874 10.9186 14.619 10.9327 14.6567C10.9609 14.7317 11.005 14.8327 11.0687 14.9346C11.194 15.1352 11.4113 15.3625 11.75 15.3625C12.0887 15.3625 12.3059 15.1352 12.4313 14.9346C12.495 14.8327 12.5391 14.7317 12.5672 14.6567C12.5814 14.619 12.5917 14.5874 12.5985 14.5649C12.6019 14.5536 12.6045 14.5446 12.6062 14.5383L12.6083 14.5307L12.6088 14.5284L12.6091 14.5275C12.6091 14.5274 12.6091 14.5273 12.5 14.5L12.6091 14.5275C12.6242 14.4672 12.5876 14.4059 12.5273 14.3909C12.467 14.3758 12.406 14.4124 12.3909 14.4726M12.3909 14.4726L12.3906 14.4736L12.3893 14.4786C12.388 14.4832 12.386 14.4903 12.3832 14.4995C12.3776 14.5181 12.3688 14.5451 12.3566 14.5777C12.332 14.6433 12.294 14.7298 12.2405 14.8154C12.1315 14.9898 11.9738 15.1375 11.75 15.1375C11.5262 15.1375 11.3684 14.9898 11.2595 14.8154C11.206 14.7298 11.168 14.6433 11.1434 14.5777C11.1312 14.5451 11.1224 14.5181 11.1168 14.4995C11.114 14.4903 11.112 14.4832 11.1107 14.4786L11.1094 14.4736L11.1091 14.4726C11.1091 14.4726 11.1091 14.4727 11.1091 14.4726" fill="#393939"/>
<circle cx="8.64286" cy="13.6429" r="0.642857" fill="#393939"/>
<circle cx="8.83571" cy="13.45" r="0.192857" fill="white"/>
<circle cx="14.8571" cy="13.6429" r="0.642857" fill="#393939"/>
<circle cx="15.05" cy="13.45" r="0.192857" fill="white"/>
</svg>
