<svg width="24" height="24" viewBox="0 0 24 24" fill="none" xmlns="http://www.w3.org/2000/svg">
<path fill-rule="evenodd" clip-rule="evenodd" d="M6.72606 8.67395C5.22318 8.67395 4 9.86848 4 11.3372C4 12.805 5.22318 14 6.72606 14H18.5785C20.4655 14 22 12.5002 22 10.6568C22 8.81333 20.4655 7.31353 18.5785 7.31353C18.2275 7.31353 17.8783 7.36654 17.5419 7.47027L17.3227 7.53836L17.2452 7.32633C16.521 5.33665 14.5848 4 12.4281 4C9.79133 4 7.60293 5.93027 7.33741 8.48979L7.31284 8.72696L7.07095 8.69771C6.93677 8.68126 6.82716 8.67395 6.72606 8.67395" fill="#7175A3"/>
<path fill-rule="evenodd" clip-rule="evenodd" d="M5 20C3.34315 20 2 18.6569 2 17C2 15.3431 3.34315 14 5 14C5.35419 14 5.69404 14.0614 6.0095 14.1741C6.17814 11.2882 8.57185 9 11.5 9C13.7467 9 15.6788 10.3471 16.5326 12.2777C16.9869 12.0985 17.482 12 18 12C20.2091 12 22 13.7909 22 16C22 18.2091 20.2091 20 18 20H11.5H5Z" fill="#F3F4FF"/>
<ellipse cx="11.5" cy="17" rx="0.5" ry="1" fill="#393939"/>
<circle cx="8.64286" cy="15.6429" r="0.642857" fill="#393939"/>
<circle cx="8.83571" cy="15.45" r="0.192857" fill="white"/>
<circle cx="14.8572" cy="15.6429" r="0.642857" fill="#393939"/>
<circle cx="15.05" cy="15.45" r="0.192857" fill="white"/>
</svg>
