<svg width="24" height="24" viewBox="0 0 24 24" fill="none" xmlns="http://www.w3.org/2000/svg">
<path d="M6.00855 17C6.09905 17.001 7.01711 18.4344 7.01711 18.9915C7.01711 19.1239 6.99102 19.2551 6.94033 19.3774C6.88964 19.4998 6.81535 19.611 6.72169 19.7046C6.53255 19.8938 6.27601 20 6.00853 20C5.74104 20 5.48452 19.8937 5.29538 19.7046C5.10625 19.5154 4.99999 19.2589 5 18.9914C5 18.4344 5.91806 16.999 6.00855 17Z" fill="#7881FE"/>
<path d="M12.0086 17C12.099 17.001 13.0171 18.4344 13.0171 18.9915C13.0171 19.1239 12.991 19.2551 12.9403 19.3774C12.8896 19.4998 12.8153 19.611 12.7217 19.7046C12.5325 19.8938 12.276 20 12.0085 20C11.741 20 11.4845 19.8937 11.2954 19.7046C11.1062 19.5154 11 19.2589 11 18.9914C11 18.4344 11.9181 16.999 12.0086 17Z" fill="#7881FE"/>
<path d="M18.0086 17C18.099 17.001 19.0171 18.4344 19.0171 18.9915C19.0171 19.1239 18.991 19.2551 18.9403 19.3774C18.8896 19.4998 18.8153 19.611 18.7217 19.7046C18.5325 19.8938 18.276 20 18.0085 20C17.741 20 17.4845 19.8937 17.2954 19.7046C17.1062 19.5154 17 19.2589 17 18.9914C17 18.4344 17.9181 16.999 18.0086 17Z" fill="#7881FE"/>
<path d="M9.00855 19C9.09905 19.001 10.0171 20.4344 10.0171 20.9915C10.0171 21.1239 9.99102 21.2551 9.94033 21.3774C9.88964 21.4998 9.81535 21.611 9.72169 21.7046C9.53255 21.8938 9.27601 22 9.00853 22C8.74104 22 8.48452 21.8937 8.29538 21.7046C8.10625 21.5154 7.99999 21.2589 8 20.9914C8 20.4344 8.91806 18.999 9.00855 19Z" fill="#7881FE"/>
<path d="M15.0086 19C15.099 19.001 16.0171 20.4344 16.0171 20.9915C16.0171 21.1239 15.991 21.2551 15.9403 21.3774C15.8896 21.4998 15.8153 21.611 15.7217 21.7046C15.5325 21.8938 15.276 22 15.0085 22C14.741 22 14.4845 21.8937 14.2954 21.7046C14.1062 21.5154 14 21.2589 14 20.9914C14 20.4344 14.9181 18.999 15.0086 19Z" fill="#7881FE"/>
<path fill-rule="evenodd" clip-rule="evenodd" d="M6.72606 6.67395C5.22318 6.67395 4 7.86848 4 9.3372C4 10.805 5.22318 12 6.72606 12H18.5785C20.4655 12 22 10.5002 22 8.65677C22 6.81333 20.4655 5.31353 18.5785 5.31353C18.2275 5.31353 17.8783 5.36654 17.5419 5.47027L17.3227 5.53836L17.2452 5.32633C16.521 3.33665 14.5848 2 12.4281 2C9.79133 2 7.60293 3.93027 7.33741 6.48979L7.31284 6.72696L7.07095 6.69771C6.93677 6.68126 6.82716 6.67395 6.72606 6.67395" fill="#7175A3"/>
<path fill-rule="evenodd" clip-rule="evenodd" d="M5 16C3.34315 16 2 14.6569 2 13C2 11.3431 3.34315 10 5 10C5.35419 10 5.69404 10.0614 6.0095 10.1741C6.17814 7.28823 8.57185 5 11.5 5C13.7467 5 15.6788 6.34714 16.5326 8.27774C16.9869 8.09848 17.482 8 18 8C20.2091 8 22 9.79086 22 12C22 14.2091 20.2091 16 18 16H11.5H5Z" fill="#F3F4FF"/>
<ellipse cx="11.5" cy="13" rx="0.5" ry="1" fill="#393939"/>
<circle cx="8.64286" cy="11.6429" r="0.642857" fill="#393939"/>
<circle cx="8.83571" cy="11.45" r="0.192857" fill="white"/>
<circle cx="14.8572" cy="11.6429" r="0.642857" fill="#393939"/>
<circle cx="15.05" cy="11.45" r="0.192857" fill="white"/>
</svg>
