<svg width="24" height="24" viewBox="0 0 24 24" fill="none" xmlns="http://www.w3.org/2000/svg">
<path d="M6.00855 16C6.09905 16.001 7.01711 17.4344 7.01711 17.9915C7.01711 18.1239 6.99102 18.2551 6.94033 18.3774C6.88964 18.4998 6.81535 18.611 6.72169 18.7046C6.53255 18.8938 6.27601 19 6.00853 19C5.74104 19 5.48452 18.8937 5.29538 18.7046C5.10625 18.5154 4.99999 18.2589 5 17.9914C5 17.4344 5.91806 15.999 6.00855 16Z" fill="#7881FE"/>
<path d="M12.0086 16C12.099 16.001 13.0171 17.4344 13.0171 17.9915C13.0171 18.1239 12.991 18.2551 12.9403 18.3774C12.8896 18.4998 12.8153 18.611 12.7217 18.7046C12.5325 18.8938 12.276 19 12.0085 19C11.741 19 11.4845 18.8937 11.2954 18.7046C11.1062 18.5154 11 18.2589 11 17.9914C11 17.4344 11.9181 15.999 12.0086 16Z" fill="#7881FE"/>
<path d="M18.0086 16C18.099 16.001 19.0171 17.4344 19.0171 17.9915C19.0171 18.1239 18.991 18.2551 18.9403 18.3774C18.8896 18.4998 18.8153 18.611 18.7217 18.7046C18.5325 18.8938 18.276 19 18.0085 19C17.741 19 17.4845 18.8937 17.2954 18.7046C17.1062 18.5154 17 18.2589 17 17.9914C17 17.4344 17.9181 15.999 18.0086 16Z" fill="#7881FE"/>
<path d="M9.00855 18C9.09905 18.001 10.0171 19.4344 10.0171 19.9915C10.0171 20.1239 9.99102 20.2551 9.94033 20.3774C9.88964 20.4998 9.81535 20.611 9.72169 20.7046C9.53255 20.8938 9.27601 21 9.00853 21C8.74104 21 8.48452 20.8937 8.29538 20.7046C8.10625 20.5154 7.99999 20.2589 8 19.9914C8 19.4344 8.91806 17.999 9.00855 18Z" fill="#7881FE"/>
<path d="M15.0086 18C15.099 18.001 16.0171 19.4344 16.0171 19.9915C16.0171 20.1239 15.991 20.2551 15.9403 20.3774C15.8896 20.4998 15.8153 20.611 15.7217 20.7046C15.5325 20.8938 15.276 21 15.0085 21C14.741 21 14.4845 20.8937 14.2954 20.7046C14.1062 20.5154 14 20.2589 14 19.9914C14 19.4344 14.9181 17.999 15.0086 18Z" fill="#7881FE"/>
<path fill-rule="evenodd" clip-rule="evenodd" d="M5 15C3.34315 15 2 13.6569 2 12C2 10.3431 3.34315 9 5 9C5.35419 9 5.69404 9.06138 6.0095 9.17408C6.17814 6.28823 8.57185 4 11.5 4C13.7467 4 15.6788 5.34714 16.5326 7.27774C16.9869 7.09848 17.482 7 18 7C20.2091 7 22 8.79086 22 11C22 13.2091 20.2091 15 18 15H11.5H5Z" fill="#F3F4FF"/>
<ellipse cx="11.5" cy="12" rx="0.5" ry="1" fill="#393939"/>
<circle cx="8.64286" cy="10.6429" r="0.642857" fill="#393939"/>
<circle cx="8.83571" cy="10.45" r="0.192857" fill="white"/>
<circle cx="14.8572" cy="10.6429" r="0.642857" fill="#393939"/>
<circle cx="15.05" cy="10.45" r="0.192857" fill="white"/>
</svg>
