<svg width="24" height="24" viewBox="0 0 24 24" fill="none" xmlns="http://www.w3.org/2000/svg">
<path fill-rule="evenodd" clip-rule="evenodd" d="M5 15C3.34315 15 2 13.6569 2 12C2 10.3431 3.34315 9 5 9C5.35419 9 5.69404 9.06138 6.0095 9.17408C6.17814 6.28823 8.57185 4 11.5 4C13.7467 4 15.6788 5.34714 16.5326 7.27774C16.9869 7.09848 17.482 7 18 7C20.2091 7 22 8.79086 22 11C22 13.2091 20.2091 15 18 15H11.5H5Z" fill="#F3F4FF"/>
<ellipse cx="11.5" cy="12" rx="0.5" ry="1" fill="#393939"/>
<circle cx="8.64286" cy="10.6429" r="0.642857" fill="#393939"/>
<circle cx="8.83571" cy="10.45" r="0.192857" fill="white"/>
<circle cx="14.8572" cy="10.6429" r="0.642857" fill="#393939"/>
<circle cx="15.05" cy="10.45" r="0.192857" fill="white"/>
<path d="M11 18.9994L11.3441 16.3281C11.3683 16.1406 11.5325 16 11.7281 16H13.7637C13.9448 16 14.0909 16.1418 14.0909 16.3175C14.0909 16.355 14.0837 16.3937 14.0704 16.4288L13.5114 17.8746H15.1933C15.4371 17.8746 15.6364 18.0668 15.6364 18.3046C15.6364 18.3913 15.6098 18.4757 15.5591 18.5472L13.2385 21.8395C13.1673 21.9402 13.0501 22 12.9258 22H12.8908C12.7012 22 12.5467 21.85 12.5467 21.6661C12.5467 21.6391 12.5503 21.6122 12.5575 21.5852L13.125 19.3743H11.3864C11.1727 19.3743 11 19.2068 11 18.9994Z" fill="#FEDF2C"/>
<path d="M6.00855 16C6.09905 16.001 7.01711 17.4344 7.01711 17.9915C7.01711 18.1239 6.99102 18.2551 6.94033 18.3774C6.88964 18.4998 6.81535 18.611 6.72169 18.7046C6.53255 18.8938 6.27601 19 6.00853 19C5.74104 19 5.48452 18.8937 5.29538 18.7046C5.10625 18.5154 4.99999 18.2589 5 17.9914C5 17.4344 5.91806 15.999 6.00855 16Z" fill="#7881FE"/>
<path d="M18.0086 16C18.099 16.001 19.0171 17.4344 19.0171 17.9915C19.0171 18.1239 18.991 18.2551 18.9403 18.3774C18.8896 18.4998 18.8153 18.611 18.7217 18.7046C18.5325 18.8938 18.276 19 18.0085 19C17.741 19 17.4845 18.8937 17.2954 18.7046C17.1062 18.5154 17 18.2589 17 17.9914C17 17.4344 17.9181 15.999 18.0086 16Z" fill="#7881FE"/>
<path d="M9.00855 18C9.09905 18.001 10.0171 19.4344 10.0171 19.9915C10.0171 20.1239 9.99102 20.2551 9.94033 20.3774C9.88964 20.4998 9.81535 20.611 9.72169 20.7046C9.53255 20.8938 9.27601 21 9.00853 21C8.74104 21 8.48452 20.8937 8.29538 20.7046C8.10625 20.5154 7.99999 20.2589 8 19.9914C8 19.4344 8.91806 17.999 9.00855 18Z" fill="#7881FE"/>
</svg>
