<svg width="24" height="24" viewBox="0 0 24 24" fill="none" xmlns="http://www.w3.org/2000/svg">
<circle cx="12" cy="12" r="8" fill="#FEDF2C"/>
<path fill-rule="evenodd" clip-rule="evenodd" d="M11.9554 2.0001C11.9703 2.00003 11.9851 2 12 2C12.0149 2 12.0297 2.00003 12.0446 2.0001C12.2806 2.00113 12.4711 2.19329 12.4701 2.42931C12.469 2.66533 12.2769 2.85582 12.0408 2.85479C12.0272 2.85473 12.0136 2.8547 12 2.8547C11.9864 2.8547 11.9728 2.85473 11.9592 2.85479C11.7231 2.85582 11.531 2.66533 11.53 2.42931C11.5289 2.19329 11.7194 2.00113 11.9554 2.0001ZM7.62057 3.47488C7.73786 3.67969 7.66691 3.9408 7.4621 4.05809C7.43862 4.07154 7.41521 4.08509 7.39186 4.09874C7.1881 4.21784 6.92636 4.14922 6.80725 3.94545C6.68815 3.74169 6.75678 3.47996 6.96054 3.36085C6.98607 3.34593 7.01168 3.33111 7.03735 3.31641C7.24216 3.19911 7.50328 3.27006 7.62057 3.47488ZM16.3794 3.47488C16.4967 3.27006 16.7578 3.19911 16.9626 3.31641C16.9883 3.33111 17.0139 3.34593 17.0395 3.36085C17.2432 3.47996 17.3119 3.74169 17.1927 3.94545C17.0736 4.14922 16.8119 4.21784 16.6081 4.09874C16.5848 4.08509 16.5614 4.07154 16.5379 4.05809C16.3331 3.9408 16.2621 3.67969 16.3794 3.47488ZM3.94545 6.80725C4.14922 6.92636 4.21784 7.1881 4.09874 7.39186C4.08509 7.41521 4.07154 7.43862 4.05809 7.4621C3.9408 7.66691 3.67969 7.73786 3.47488 7.62057C3.27006 7.50328 3.19911 7.24216 3.31641 7.03735C3.33111 7.01168 3.34593 6.98607 3.36085 6.96054C3.47996 6.75678 3.74169 6.68815 3.94545 6.80725ZM20.0545 6.80725C20.2583 6.68815 20.52 6.75678 20.6392 6.96054C20.6541 6.98607 20.6689 7.01168 20.6836 7.03735C20.8009 7.24216 20.7299 7.50328 20.5251 7.62057C20.3203 7.73786 20.0592 7.66691 19.9419 7.4621C19.9285 7.43862 19.9149 7.41521 19.9013 7.39186C19.7822 7.1881 19.8508 6.92636 20.0545 6.80725ZM2.42931 11.5299C2.66533 11.531 2.85582 11.7231 2.85479 11.9592C2.85473 11.9728 2.8547 11.9864 2.8547 12C2.8547 12.0136 2.85473 12.0272 2.85479 12.0408C2.85582 12.2769 2.66533 12.469 2.42931 12.4701C2.19329 12.4711 2.00113 12.2806 2.0001 12.0446C2.00003 12.0297 2 12.0149 2 12C2 11.9851 2.00003 11.9703 2.0001 11.9554C2.00113 11.7194 2.19329 11.5289 2.42931 11.5299ZM21.5707 11.53C21.8067 11.5289 21.9989 11.7194 21.9999 11.9554C22 11.9703 22 11.9851 22 12C22 12.0149 22 12.0297 21.9999 12.0446C21.9989 12.2806 21.8067 12.4711 21.5707 12.4701C21.3347 12.469 21.1442 12.2769 21.1452 12.0408C21.1453 12.0272 21.1453 12.0136 21.1453 12C21.1453 11.9864 21.1453 11.9728 21.1452 11.9592C21.1442 11.7231 21.3347 11.531 21.5707 11.53ZM3.47488 16.3794C3.67969 16.2621 3.9408 16.3331 4.05809 16.5379C4.07154 16.5614 4.08509 16.5848 4.09874 16.6081C4.21784 16.8119 4.14922 17.0736 3.94545 17.1927C3.74169 17.3119 3.47996 17.2432 3.36085 17.0395C3.34593 17.0139 3.33111 16.9883 3.31641 16.9626C3.19911 16.7578 3.27006 16.4967 3.47488 16.3794ZM20.5251 16.3794C20.7299 16.4967 20.8009 16.7578 20.6836 16.9626C20.6689 16.9883 20.6541 17.0139 20.6392 17.0395C20.52 17.2432 20.2583 17.3119 20.0545 17.1927C19.8508 17.0736 19.7822 16.8119 19.9013 16.6081C19.9149 16.5848 19.9285 16.5614 19.9419 16.5379C20.0592 16.3331 20.3203 16.2621 20.5251 16.3794ZM6.80725 20.0545C6.92636 19.8508 7.1881 19.7822 7.39186 19.9013C7.41521 19.9149 7.43862 19.9285 7.4621 19.9419C7.66691 20.0592 7.73786 20.3203 7.62057 20.5251C7.50328 20.7299 7.24216 20.8009 7.03735 20.6836C7.01168 20.6689 6.98607 20.6541 6.96054 20.6392C6.75678 20.52 6.68815 20.2583 6.80725 20.0545ZM17.1927 20.0545C17.3119 20.2583 17.2432 20.52 17.0395 20.6392C17.0139 20.6541 16.9883 20.6689 16.9626 20.6836C16.7578 20.8009 16.4967 20.7299 16.3794 20.5251C16.2621 20.3203 16.3331 20.0592 16.5379 19.9419C16.5614 19.9285 16.5848 19.9149 16.6081 19.9013C16.8119 19.7822 17.0736 19.8508 17.1927 20.0545ZM11.5299 21.5707C11.531 21.3347 11.7231 21.1442 11.9592 21.1452C11.9728 21.1453 11.9864 21.1453 12 21.1453C12.0136 21.1453 12.0272 21.1453 12.0408 21.1452C12.2769 21.1442 12.469 21.3347 12.4701 21.5707C12.4711 21.8067 12.2806 21.9989 12.0446 21.9999C12.0359 21.9999 12.0272 22 12.0185 22C12.0123 22 12.0062 22 12 22C11.9851 22 11.9703 22 11.9554 21.9999C11.7194 21.9989 11.5289 21.8067 11.5299 21.5707Z" fill="#FEDF2C"/>
<path fill-rule="evenodd" clip-rule="evenodd" d="M11.1455 12.9635C11.1254 12.8832 11.044 12.8344 10.9636 12.8545C10.8833 12.8746 10.8344 12.956 10.8545 13.0364L11 13C10.8545 13.0364 10.8545 13.0363 10.8545 13.0364L10.8549 13.0379L10.8556 13.0409L10.8584 13.051C10.8607 13.0595 10.8641 13.0715 10.8687 13.0865C10.8778 13.1165 10.8915 13.1587 10.9103 13.2089C10.9478 13.3089 11.0066 13.4436 11.0915 13.5795C11.2587 13.847 11.5484 14.15 12 14.15C12.4516 14.15 12.7413 13.847 12.9084 13.5795C12.9934 13.4436 13.0522 13.3089 13.0897 13.2089C13.1085 13.1587 13.1222 13.1165 13.1313 13.0865C13.1359 13.0715 13.1393 13.0595 13.1416 13.051L13.1444 13.0409L13.1451 13.0379L13.1455 13.0366C13.1455 13.0366 13.1455 13.0364 13 13L13.1455 13.0366C13.1656 12.9563 13.1167 12.8746 13.0364 12.8545C12.956 12.8344 12.8746 12.8832 12.8545 12.9635M12.8545 12.9635L12.8542 12.9648L12.8524 12.9715C12.8507 12.9776 12.848 12.9871 12.8443 12.9994C12.8368 13.0241 12.8251 13.0601 12.8088 13.1036C12.776 13.1911 12.7254 13.3064 12.654 13.4205C12.5087 13.653 12.2984 13.85 12 13.85C11.7016 13.85 11.4913 13.653 11.3459 13.4205C11.2746 13.3064 11.224 13.1911 11.1912 13.1036C11.1749 13.0601 11.1632 13.0241 11.1557 12.9994C11.152 12.9871 11.1493 12.9776 11.1476 12.9715L11.1458 12.9648L11.1455 12.9635C11.1455 12.9635 11.1455 12.9635 11.1455 12.9635" fill="#393939"/>
<circle cx="7.85714" cy="11.8571" r="0.857143" fill="#393939"/>
<circle cx="8.11429" cy="11.6" r="0.257143" fill="white"/>
<circle cx="16.1429" cy="11.8571" r="0.857143" fill="#393939"/>
<circle cx="16.4" cy="11.6" r="0.257143" fill="white"/>
</svg>
