<svg width="24" height="24" viewBox="0 0 24 24" fill="none" xmlns="http://www.w3.org/2000/svg">
<path fill-rule="evenodd" clip-rule="evenodd" d="M10.1172 2.94806C10.148 2.89197 10.1079 2.82271 10.0439 2.82389C8.8234 2.84646 7.59129 3.16955 6.45928 3.82312C2.89192 5.88273 1.66965 10.4443 3.72927 14.0117C5.78888 17.579 10.3505 18.8013 13.9178 16.7417C15.0498 16.0881 15.9457 15.1826 16.5755 14.1369C16.6085 14.082 16.5686 14.0127 16.5046 14.0114C13.9801 13.9605 11.5432 12.6287 10.1885 10.2824C8.83393 7.93612 8.89897 5.15978 10.1172 2.94806Z" fill="#FEDF2C"/>
<path fill-rule="evenodd" clip-rule="evenodd" d="M6.07397 11.2112C6.05721 11.1443 5.98943 11.1037 5.92254 11.1204C5.85563 11.1371 5.81495 11.2049 5.83168 11.2718L5.95283 11.2416C5.83168 11.2718 5.83167 11.2718 5.83168 11.2718L5.832 11.2731L5.83265 11.2756L5.83491 11.284C5.83686 11.2911 5.8397 11.3011 5.8435 11.3136C5.85108 11.3386 5.86249 11.3737 5.87818 11.4155C5.90941 11.4988 5.95835 11.6109 6.02905 11.724C6.16824 11.9467 6.40941 12.199 6.78539 12.199C7.16138 12.199 7.40254 11.9467 7.54173 11.724C7.61244 11.6109 7.66138 11.4988 7.69261 11.4155C7.7083 11.3737 7.71971 11.3386 7.72729 11.3136C7.73108 11.3011 7.73393 11.2911 7.73588 11.284L7.73814 11.2756L7.73878 11.2731L7.73906 11.2721C7.73907 11.272 7.73911 11.2718 7.61795 11.2416L7.73906 11.2721C7.75579 11.2051 7.71515 11.1371 7.64824 11.1204C7.58135 11.1037 7.51358 11.1443 7.49682 11.2112M7.49682 11.2112L7.49653 11.2123L7.49505 11.2178C7.49365 11.2229 7.49141 11.2308 7.48829 11.2411C7.48205 11.2616 7.47232 11.2916 7.45874 11.3278C7.43143 11.4006 7.38931 11.4966 7.32993 11.5917C7.20895 11.7852 7.03383 11.9492 6.78539 11.9492C6.53696 11.9492 6.36184 11.7852 6.24086 11.5917C6.18147 11.4966 6.13935 11.4006 6.11204 11.3278C6.09846 11.2916 6.08874 11.2616 6.08249 11.2411C6.07938 11.2308 6.07714 11.2229 6.07574 11.2178L6.07425 11.2123L6.07397 11.2112C6.07395 11.2111 6.07397 11.2112 6.07397 11.2112" fill="#393939"/>
<circle cx="4.87643" cy="10.1651" r="0.713623" fill="#393939"/>
<circle cx="5.09051" cy="9.95106" r="0.214087" fill="white"/>
<circle cx="9.03923" cy="10.1651" r="0.713623" fill="#393939"/>
<circle cx="9.25333" cy="9.95106" r="0.214087" fill="white"/>
<path fill-rule="evenodd" clip-rule="evenodd" d="M5.0054 22C5.0036 22 5.0018 22 4.99999 22C3.34314 22 1.99999 20.6569 1.99999 19C1.99999 17.3431 3.34314 16 4.99999 16C5.35418 16 5.69403 16.0614 6.00949 16.1741C6.17814 13.2882 8.57185 11 11.5 11C13.7467 11 15.6788 12.3471 16.5326 14.2777C16.9869 14.0985 17.482 14 18 14C20.2091 14 22 15.7909 22 18C22 20.2091 20.2091 22 18 22C17.9984 22 17.9968 22 17.9952 22H11.5073C11.5049 22 11.5024 22 11.5 22C11.4976 22 11.4951 22 11.4927 22H5.0054Z" fill="#F3F4FF"/>
<path fill-rule="evenodd" clip-rule="evenodd" d="M11.1091 18.4726C11.094 18.4124 11.033 18.3758 10.9727 18.3909C10.9124 18.4059 10.8758 18.467 10.8909 18.5273L11 18.5C10.8909 18.5273 10.8908 18.5272 10.8909 18.5273L10.8911 18.5284L10.8917 18.5307L10.8938 18.5383C10.8955 18.5446 10.8981 18.5536 10.9015 18.5649C10.9083 18.5874 10.9186 18.619 10.9327 18.6567C10.9609 18.7317 11.005 18.8327 11.0687 18.9346C11.194 19.1352 11.4113 19.3625 11.75 19.3625C12.0887 19.3625 12.3059 19.1352 12.4313 18.9346C12.495 18.8327 12.5391 18.7317 12.5672 18.6567C12.5814 18.619 12.5917 18.5874 12.5985 18.5649C12.6019 18.5536 12.6045 18.5446 12.6062 18.5383L12.6083 18.5307L12.6088 18.5284L12.6091 18.5275C12.6091 18.5274 12.6091 18.5273 12.5 18.5L12.6091 18.5275C12.6242 18.4672 12.5876 18.4059 12.5273 18.3909C12.467 18.3758 12.406 18.4124 12.3909 18.4726M12.3909 18.4726L12.3906 18.4736L12.3893 18.4786C12.388 18.4832 12.386 18.4903 12.3832 18.4995C12.3776 18.5181 12.3688 18.5451 12.3566 18.5777C12.332 18.6433 12.294 18.7298 12.2405 18.8154C12.1315 18.9898 11.9738 19.1375 11.75 19.1375C11.5262 19.1375 11.3684 18.9898 11.2595 18.8154C11.206 18.7298 11.168 18.6433 11.1434 18.5777C11.1312 18.5451 11.1224 18.5181 11.1168 18.4995C11.114 18.4903 11.112 18.4832 11.1107 18.4786L11.1094 18.4736L11.1091 18.4726C11.1091 18.4726 11.1091 18.4727 11.1091 18.4726" fill="#393939"/>
<circle cx="8.64285" cy="17.6429" r="0.642857" fill="#393939"/>
<circle cx="8.8357" cy="17.45" r="0.192857" fill="white"/>
<circle cx="14.8571" cy="17.6429" r="0.642857" fill="#393939"/>
<circle cx="15.05" cy="17.45" r="0.192857" fill="white"/>
<path d="M15.8762 6.23581C15.9057 6.18189 15.9832 6.18189 16.0127 6.23581L16.5337 7.18798C16.5449 7.20841 16.5646 7.22275 16.5875 7.22707L17.654 7.42833C17.7144 7.43973 17.7384 7.51339 17.6962 7.55812L16.9516 8.34785C16.9357 8.3648 16.9281 8.38801 16.9311 8.41111L17.0693 9.48766C17.0771 9.54863 17.0144 9.59415 16.9589 9.56787L15.9777 9.10379C15.9566 9.09383 15.9322 9.09383 15.9112 9.10379L14.93 9.56787C14.8745 9.59415 14.8118 9.54863 14.8196 9.48766L14.9578 8.41111C14.9608 8.38801 14.9532 8.3648 14.9372 8.34785L14.1927 7.55812C14.1505 7.51339 14.1744 7.43973 14.2348 7.42833L15.3014 7.22707C15.3243 7.22275 15.344 7.20841 15.3552 7.18798L15.8762 6.23581Z" fill="#FEDF2C"/>
<path d="M18.2095 3.1247C18.239 3.07077 18.3165 3.07077 18.346 3.1247L18.6242 3.63321C18.6354 3.65364 18.6552 3.66798 18.6781 3.6723L19.2477 3.77979C19.3081 3.79119 19.332 3.86485 19.2898 3.90957L18.8922 4.33134C18.8762 4.34828 18.8687 4.37149 18.8716 4.39459L18.9454 4.96953C18.9533 5.0305 18.8906 5.07603 18.835 5.04974L18.311 4.8019C18.29 4.79194 18.2656 4.79194 18.2445 4.8019L17.7205 5.04974C17.665 5.07603 17.6023 5.0305 17.6101 4.96953L17.6839 4.39459C17.6869 4.37149 17.6793 4.34828 17.6634 4.33134L17.2657 3.90957C17.2236 3.86485 17.2475 3.79119 17.3079 3.77979L17.8775 3.6723C17.9004 3.66798 17.9201 3.65364 17.9313 3.63321L18.2095 3.1247Z" fill="#FEDF2C"/>
</svg>
