<svg width="24" height="24" viewBox="0 0 24 24" fill="none" xmlns="http://www.w3.org/2000/svg">
<circle cx="15.5" cy="9.5" r="6" fill="#FEDF2C"/>
<path fill-rule="evenodd" clip-rule="evenodd" d="M15.4666 2.00007C15.4777 2.00002 15.4889 2 15.5 2C15.5111 2 15.5223 2.00002 15.5334 2.00007C15.7104 2.00085 15.8533 2.14497 15.8525 2.32198C15.8518 2.499 15.7076 2.64187 15.5306 2.64109C15.5204 2.64105 15.5102 2.64103 15.5 2.64103C15.4898 2.64103 15.4796 2.64105 15.4694 2.64109C15.2924 2.64187 15.1482 2.499 15.1475 2.32198C15.1467 2.14497 15.2896 2.00085 15.4666 2.00007ZM12.2154 3.10616C12.3034 3.25977 12.2502 3.4556 12.0966 3.54357C12.079 3.55366 12.0614 3.56382 12.0439 3.57405C11.8911 3.66338 11.6948 3.61191 11.6054 3.45909C11.5161 3.30627 11.5676 3.10997 11.7204 3.02064C11.7396 3.00944 11.7588 2.99833 11.778 2.9873C11.9316 2.89934 12.1275 2.95255 12.2154 3.10616ZM18.7846 3.10616C18.8725 2.95255 19.0684 2.89934 19.222 2.9873C19.2412 2.99833 19.2604 3.00944 19.2796 3.02064C19.4324 3.10997 19.4839 3.30627 19.3946 3.45909C19.3052 3.61191 19.1089 3.66338 18.9561 3.57405C18.9386 3.56382 18.921 3.55366 18.9034 3.54357C18.7498 3.4556 18.6966 3.25977 18.7846 3.10616ZM9.45909 5.60544C9.61191 5.69477 9.66338 5.89107 9.57405 6.04389C9.56382 6.06141 9.55366 6.07897 9.54357 6.09658C9.4556 6.25019 9.25977 6.3034 9.10616 6.21543C8.95255 6.12746 8.89934 5.93162 8.9873 5.77801C8.99833 5.75876 9.00944 5.73955 9.02064 5.7204C9.10997 5.56758 9.30627 5.51611 9.45909 5.60544ZM21.5409 5.60544C21.6937 5.51611 21.89 5.56758 21.9794 5.7204C21.9906 5.73955 22.0017 5.75876 22.0127 5.77801C22.1007 5.93162 22.0475 6.12746 21.8938 6.21543C21.7402 6.3034 21.5444 6.25019 21.4564 6.09658C21.4463 6.07897 21.4362 6.06141 21.4259 6.04389C21.3366 5.89107 21.3881 5.69477 21.5409 5.60544ZM8.32198 9.14746C8.499 9.14824 8.64187 9.29236 8.64109 9.46937C8.64105 9.47958 8.64103 9.48979 8.64103 9.5C8.64103 9.51022 8.64105 9.52042 8.64109 9.53063C8.64187 9.70764 8.499 9.85177 8.32198 9.85254C8.14497 9.85331 8.00085 9.71044 8.00007 9.53343C8.00002 9.52229 8 9.51115 8 9.5C8 9.48885 8.00002 9.47771 8.00007 9.46657C8.00085 9.28956 8.14497 9.14669 8.32198 9.14746ZM22.678 9.14746C22.855 9.14669 22.9992 9.28956 22.9999 9.46657C23 9.47771 23 9.48885 23 9.5C23 9.51115 23 9.52229 22.9999 9.53343C22.9992 9.71044 22.855 9.85331 22.678 9.85254C22.501 9.85177 22.3581 9.70764 22.3589 9.53063C22.359 9.52042 22.359 9.51022 22.359 9.5C22.359 9.48979 22.359 9.47958 22.3589 9.46937C22.3581 9.29236 22.501 9.14824 22.678 9.14746ZM9.10616 12.7846C9.25977 12.6966 9.4556 12.7498 9.54357 12.9034C9.55366 12.921 9.56382 12.9386 9.57405 12.9561C9.66338 13.1089 9.61191 13.3052 9.45909 13.3946C9.30627 13.4839 9.10997 13.4324 9.02064 13.2796C9.00944 13.2604 8.99833 13.2412 8.9873 13.222C8.89934 13.0684 8.95255 12.8725 9.10616 12.7846ZM21.8938 12.7846C22.0475 12.8725 22.1007 13.0684 22.0127 13.222C22.0017 13.2412 21.9906 13.2604 21.9794 13.2796C21.89 13.4324 21.6937 13.4839 21.5409 13.3946C21.3881 13.3052 21.3366 13.1089 21.4259 12.9561C21.4362 12.9386 21.4463 12.921 21.4564 12.9034C21.5444 12.7498 21.7402 12.6966 21.8938 12.7846ZM11.6054 15.5409C11.6948 15.3881 11.8911 15.3366 12.0439 15.4259C12.0614 15.4362 12.079 15.4463 12.0966 15.4564C12.2502 15.5444 12.3034 15.7402 12.2154 15.8938C12.1275 16.0475 11.9316 16.1007 11.778 16.0127C11.7588 16.0017 11.7396 15.9906 11.7204 15.9794C11.5676 15.89 11.5161 15.6937 11.6054 15.5409ZM19.3946 15.5409C19.4839 15.6937 19.4324 15.89 19.2796 15.9794C19.2604 15.9906 19.2412 16.0017 19.222 16.0127C19.0684 16.1007 18.8725 16.0475 18.7846 15.8938C18.6966 15.7402 18.7498 15.5444 18.9034 15.4564C18.921 15.4463 18.9386 15.4362 18.9561 15.4259C19.1089 15.3366 19.3052 15.3881 19.3946 15.5409ZM15.1475 16.678C15.1482 16.501 15.2924 16.3581 15.4694 16.3589C15.4796 16.359 15.4898 16.359 15.5 16.359C15.5102 16.359 15.5204 16.359 15.5306 16.3589C15.7076 16.3581 15.8518 16.501 15.8525 16.678C15.8533 16.855 15.7104 16.9992 15.5334 16.9999C15.5269 17 15.5204 17 15.5139 17C15.5093 17 15.5046 17 15.5 17C15.4889 17 15.4777 17 15.4666 16.9999C15.2896 16.9992 15.1467 16.855 15.1475 16.678Z" fill="#FEDF2C"/>
<path fill-rule="evenodd" clip-rule="evenodd" d="M14.8591 10.2226C14.844 10.1624 14.783 10.1258 14.7227 10.1409C14.6624 10.1559 14.6258 10.217 14.6409 10.2773L14.75 10.25C14.6409 10.2773 14.6408 10.2772 14.6409 10.2773L14.6411 10.2784L14.6417 10.2807L14.6438 10.2883C14.6455 10.2946 14.6481 10.3036 14.6515 10.3149C14.6583 10.3374 14.6686 10.369 14.6827 10.4067C14.7109 10.4817 14.755 10.5827 14.8187 10.6846C14.944 10.8852 15.1613 11.1125 15.5 11.1125C15.8387 11.1125 16.0559 10.8852 16.1813 10.6846C16.245 10.5827 16.2891 10.4817 16.3172 10.4067C16.3314 10.369 16.3417 10.3374 16.3485 10.3149C16.3519 10.3036 16.3545 10.2946 16.3562 10.2883L16.3583 10.2807L16.3588 10.2784L16.3591 10.2775C16.3591 10.2774 16.3591 10.2773 16.25 10.25L16.3591 10.2775C16.3742 10.2172 16.3376 10.1559 16.2773 10.1409C16.217 10.1258 16.156 10.1624 16.1409 10.2226M16.1409 10.2226L16.1406 10.2236L16.1393 10.2286C16.138 10.2332 16.136 10.2403 16.1332 10.2495C16.1276 10.2681 16.1188 10.2951 16.1066 10.3277C16.082 10.3933 16.044 10.4798 15.9905 10.5654C15.8815 10.7398 15.7238 10.8875 15.5 10.8875C15.2762 10.8875 15.1184 10.7398 15.0095 10.5654C14.956 10.4798 14.918 10.3933 14.8934 10.3277C14.8812 10.2951 14.8724 10.2681 14.8668 10.2495C14.864 10.2403 14.862 10.2332 14.8607 10.2286L14.8594 10.2236L14.8591 10.2226C14.8591 10.2226 14.8591 10.2227 14.8591 10.2226" fill="#393939"/>
<circle cx="12.3929" cy="9.39286" r="0.642857" fill="#393939"/>
<circle cx="12.5857" cy="9.2" r="0.192857" fill="white"/>
<circle cx="18.6071" cy="9.39286" r="0.642857" fill="#393939"/>
<circle cx="18.8" cy="9.2" r="0.192857" fill="white"/>
<path fill-rule="evenodd" clip-rule="evenodd" d="M5 22C3.34315 22 2 20.6569 2 19C2 17.3431 3.34315 16 5 16C5.35419 16 5.69404 16.0614 6.0095 16.1741C6.17814 13.2882 8.57185 11 11.5 11C13.7467 11 15.6788 12.3471 16.5326 14.2777C16.9869 14.0985 17.482 14 18 14C20.2091 14 22 15.7909 22 18C22 20.2091 20.2091 22 18 22H11.5H5Z" fill="#F3F4FF"/>
<path fill-rule="evenodd" clip-rule="evenodd" d="M11.1091 18.4726C11.094 18.4124 11.033 18.3758 10.9727 18.3909C10.9124 18.4059 10.8758 18.467 10.8909 18.5273L11 18.5C10.8909 18.5273 10.8908 18.5272 10.8909 18.5273L10.8911 18.5284L10.8917 18.5307L10.8938 18.5383C10.8955 18.5446 10.8981 18.5536 10.9015 18.5649C10.9083 18.5874 10.9186 18.619 10.9327 18.6567C10.9609 18.7317 11.005 18.8327 11.0687 18.9346C11.194 19.1352 11.4113 19.3625 11.75 19.3625C12.0887 19.3625 12.3059 19.1352 12.4313 18.9346C12.495 18.8327 12.5391 18.7317 12.5672 18.6567C12.5814 18.619 12.5917 18.5874 12.5985 18.5649C12.6019 18.5536 12.6045 18.5446 12.6062 18.5383L12.6083 18.5307L12.6088 18.5284L12.6091 18.5275C12.6091 18.5274 12.6091 18.5273 12.5 18.5L12.6091 18.5275C12.6242 18.4672 12.5876 18.4059 12.5273 18.3909C12.467 18.3758 12.406 18.4124 12.3909 18.4726M12.3909 18.4726L12.3906 18.4736L12.3893 18.4786C12.388 18.4832 12.386 18.4903 12.3832 18.4995C12.3776 18.5181 12.3688 18.5451 12.3566 18.5777C12.332 18.6433 12.294 18.7298 12.2405 18.8154C12.1315 18.9898 11.9738 19.1375 11.75 19.1375C11.5262 19.1375 11.3684 18.9898 11.2595 18.8154C11.206 18.7298 11.168 18.6433 11.1434 18.5777C11.1312 18.5451 11.1224 18.5181 11.1168 18.4995C11.114 18.4903 11.112 18.4832 11.1107 18.4786L11.1094 18.4736L11.1091 18.4726C11.1091 18.4726 11.1091 18.4727 11.1091 18.4726" fill="#393939"/>
<circle cx="8.64286" cy="17.6429" r="0.642857" fill="#393939"/>
<circle cx="8.83571" cy="17.45" r="0.192857" fill="white"/>
<circle cx="14.8571" cy="17.6429" r="0.642857" fill="#393939"/>
<circle cx="15.05" cy="17.45" r="0.192857" fill="white"/>
</svg>
