<svg width="24" height="24" viewBox="0 0 24 24" fill="none" xmlns="http://www.w3.org/2000/svg">
<path fill-rule="evenodd" clip-rule="evenodd" d="M4 4.5C4 4.22386 4.23703 4 4.52941 4H21.4706C21.763 4 22 4.22386 22 4.5C22 4.77614 21.763 5 21.4706 5H4.52941C4.23703 5 4 4.77614 4 4.5Z" fill="#F3F4FF"/>
<path fill-rule="evenodd" clip-rule="evenodd" d="M2 7.5C2 7.22386 2.26336 7 2.58824 7H21.4118C21.7366 7 22 7.22386 22 7.5C22 7.77614 21.7366 8 21.4118 8H2.58824C2.26336 8 2 7.77614 2 7.5Z" fill="#F3F4FF"/>
<path fill-rule="evenodd" clip-rule="evenodd" d="M2 13.5C2 13.2239 2.26336 13 2.58824 13H21.4118C21.7366 13 22 13.2239 22 13.5C22 13.7761 21.7366 14 21.4118 14H2.58824C2.26336 14 2 13.7761 2 13.5Z" fill="#F3F4FF"/>
<path fill-rule="evenodd" clip-rule="evenodd" d="M2 16.5C2 16.2239 2.23703 16 2.52941 16H19.4706C19.763 16 20 16.2239 20 16.5C20 16.7761 19.763 17 19.4706 17H2.52941C2.23703 17 2 16.7761 2 16.5Z" fill="#F3F4FF"/>
<path fill-rule="evenodd" clip-rule="evenodd" d="M2 10.5C2 10.2239 2.26456 10 2.59091 10H14.4091C14.7354 10 15 10.2239 15 10.5C15 10.7761 14.7354 11 14.4091 11H2.59091C2.26456 11 2 10.7761 2 10.5Z" fill="#F3F4FF"/>
<path fill-rule="evenodd" clip-rule="evenodd" d="M9 19.5C9 19.2239 9.26456 19 9.59091 19H21.4091C21.7354 19 22 19.2239 22 19.5C22 19.7761 21.7354 20 21.4091 20H9.59091C9.26456 20 9 19.7761 9 19.5Z" fill="#F3F4FF"/>
<path fill-rule="evenodd" clip-rule="evenodd" d="M11.1091 12.4726C11.094 12.4124 11.0329 12.3758 10.9727 12.3909C10.9124 12.4059 10.8758 12.467 10.8908 12.5273L11 12.5C10.8908 12.5273 10.8908 12.5272 10.8908 12.5273L10.8911 12.5284L10.8917 12.5307L10.8937 12.5383C10.8955 12.5446 10.8981 12.5536 10.9015 12.5649C10.9083 12.5874 10.9186 12.619 10.9327 12.6567C10.9609 12.7317 11.0049 12.8327 11.0686 12.9346C11.194 13.1352 11.4113 13.3625 11.75 13.3625C12.0887 13.3625 12.3059 13.1352 12.4313 12.9346C12.495 12.8327 12.5391 12.7317 12.5672 12.6567C12.5814 12.619 12.5916 12.5874 12.5985 12.5649C12.6019 12.5536 12.6045 12.5446 12.6062 12.5383L12.6082 12.5307L12.6088 12.5284L12.6091 12.5275C12.6091 12.5274 12.6091 12.5273 12.5 12.5L12.6091 12.5275C12.6241 12.4672 12.5875 12.4059 12.5273 12.3909C12.467 12.3758 12.406 12.4124 12.3909 12.4726M12.3909 12.4726L12.3906 12.4736L12.3893 12.4786C12.388 12.4832 12.386 12.4903 12.3832 12.4995C12.3776 12.5181 12.3688 12.5451 12.3566 12.5777C12.332 12.6433 12.294 12.7298 12.2405 12.8154C12.1315 12.9898 11.9738 13.1375 11.75 13.1375C11.5262 13.1375 11.3684 12.9898 11.2594 12.8154C11.2059 12.7298 11.168 12.6433 11.1434 12.5777C11.1312 12.5451 11.1224 12.5181 11.1168 12.4995C11.114 12.4903 11.112 12.4832 11.1107 12.4786L11.1094 12.4736L11.1091 12.4726C11.1091 12.4726 11.1091 12.4727 11.1091 12.4726" fill="#393939"/>
<circle cx="8.64286" cy="11.6429" r="0.642857" fill="#393939"/>
<circle cx="8.83571" cy="11.45" r="0.192857" fill="white"/>
<circle cx="14.8572" cy="11.6429" r="0.642857" fill="#393939"/>
<circle cx="15.05" cy="11.45" r="0.192857" fill="white"/>
</svg>
