<svg width="24" height="24" viewBox="0 0 24 24" fill="none" xmlns="http://www.w3.org/2000/svg">
<g clip-path="url(#clip0_6_1558)">
<path fill-rule="evenodd" clip-rule="evenodd" d="M19.8479 17.1627C20.0996 17.3081 20.4215 17.2218 20.5668 16.9701C20.7122 16.7183 20.6259 16.3964 20.3742 16.2511L16.9166 14.2548L20.003 13.4278C20.2838 13.3526 20.4504 13.064 20.3752 12.7832C20.2999 12.5025 20.0113 12.3358 19.7306 12.4111L15.6635 13.5008C15.6518 13.504 15.6402 13.5075 15.6289 13.5114L13.0044 11.9961L15.8741 10.3393L19.7306 11.3727C20.0114 11.4479 20.3 11.2813 20.3752 11.0005C20.4504 10.7197 20.2838 10.4311 20.003 10.3559L17.1633 9.59499L20.4645 7.68903C20.7163 7.54369 20.8025 7.2218 20.6572 6.97007C20.5118 6.71834 20.1899 6.63209 19.9382 6.77743L16.4806 8.7737L17.3076 5.68727C17.3828 5.40649 17.2162 5.1179 16.9354 5.04266C16.6546 4.96743 16.366 5.13405 16.2908 5.41482L15.201 9.48188C15.1979 9.49363 15.1952 9.50539 15.1929 9.51715L12.5684 11.0324L12.5684 7.71877L15.3915 4.89561C15.5971 4.69007 15.5971 4.35683 15.3915 4.15129C15.186 3.94575 14.8527 3.94575 14.6472 4.15129L12.5684 6.23013L12.5684 2.41819C12.5684 2.12751 12.3327 1.89187 12.042 1.89187C11.7514 1.89187 11.5157 2.12751 11.5157 2.41819L11.5157 6.41068L9.25634 4.15129C9.0508 3.94575 8.71755 3.94575 8.51202 4.15129C8.30648 4.35683 8.30648 4.69007 8.51202 4.89561L11.4893 7.8729C11.4979 7.88149 11.5067 7.88973 11.5157 7.8976L11.5157 11.1367L8.86703 9.60744C8.86472 9.59568 8.862 9.58392 8.85885 9.57218L7.76909 5.50512C7.69386 5.22435 7.40526 5.05773 7.12449 5.13296C6.84372 5.20819 6.67709 5.49679 6.75233 5.77756L7.57933 8.86398L3.9653 6.77742C3.71357 6.63208 3.39168 6.71833 3.24634 6.97006C3.101 7.2218 3.18725 7.54369 3.43899 7.68903L6.89662 9.68529L4.05691 10.4462C3.77614 10.5214 3.60951 10.81 3.68475 11.0908C3.75998 11.3716 4.04858 11.5382 4.32935 11.463L8.18583 10.4296L10.8991 11.9961L8.43104 13.4211C8.4197 13.4172 8.40815 13.4137 8.39641 13.4105L4.32935 12.3208C4.04858 12.2455 3.75998 12.4122 3.68475 12.6929C3.60951 12.9737 3.77614 13.2623 4.05691 13.3375L7.14334 14.1645L3.52931 16.2511C3.27757 16.3964 3.19132 16.7183 3.33666 16.9701C3.482 17.2218 3.80389 17.3081 4.05562 17.1627L7.51326 15.1664L6.75236 18.0062C6.67712 18.2869 6.84375 18.5755 7.12452 18.6508C7.40529 18.726 7.69389 18.5594 7.76912 18.2786L8.80246 14.4221L11.5157 12.8556L11.5157 15.7055C11.5067 15.7134 11.4979 15.7216 11.4893 15.7302L8.51202 18.7075C8.30648 18.9131 8.30648 19.2463 8.51201 19.4518C8.71755 19.6574 9.0508 19.6574 9.25634 19.4518L11.5157 17.1925L11.5157 21.3656C11.5157 21.6562 11.7514 21.8919 12.042 21.8919C12.3327 21.8919 12.5684 21.6562 12.5684 21.3656L12.5684 17.373L14.6472 19.4518C14.8527 19.6574 15.186 19.6574 15.3915 19.4518C15.5971 19.2463 15.5971 18.9131 15.3915 18.7075L12.5684 15.8844L12.5684 12.9599L15.2575 14.5124L16.2908 18.3689C16.366 18.6497 16.6546 18.8163 16.9354 18.7411C17.2162 18.6658 17.3828 18.3772 17.3076 18.0965L16.5467 15.2568L19.8479 17.1627Z" fill="#F3F4FF"/>
<path fill-rule="evenodd" clip-rule="evenodd" d="M11.1091 12.4726C11.094 12.4124 11.0329 12.3758 10.9727 12.3909C10.9124 12.4059 10.8758 12.467 10.8908 12.5273L11 12.5C10.8908 12.5273 10.8908 12.5272 10.8908 12.5273L10.8911 12.5284L10.8917 12.5307L10.8937 12.5383C10.8955 12.5446 10.8981 12.5536 10.9015 12.5649C10.9083 12.5874 10.9186 12.619 10.9327 12.6567C10.9609 12.7317 11.0049 12.8327 11.0686 12.9346C11.194 13.1352 11.4113 13.3625 11.75 13.3625C12.0887 13.3625 12.3059 13.1352 12.4313 12.9346C12.495 12.8327 12.5391 12.7317 12.5672 12.6567C12.5814 12.619 12.5916 12.5874 12.5985 12.5649C12.6019 12.5536 12.6045 12.5446 12.6062 12.5383L12.6082 12.5307L12.6088 12.5284L12.6091 12.5275C12.6091 12.5274 12.6091 12.5273 12.5 12.5L12.6091 12.5275C12.6241 12.4672 12.5875 12.4059 12.5273 12.3909C12.467 12.3758 12.406 12.4124 12.3909 12.4726M12.3909 12.4726L12.3906 12.4736L12.3893 12.4786C12.388 12.4832 12.386 12.4903 12.3832 12.4995C12.3776 12.5181 12.3688 12.5451 12.3566 12.5777C12.332 12.6433 12.294 12.7298 12.2405 12.8154C12.1315 12.9898 11.9738 13.1375 11.75 13.1375C11.5262 13.1375 11.3684 12.9898 11.2594 12.8154C11.2059 12.7298 11.168 12.6433 11.1434 12.5777C11.1312 12.5451 11.1224 12.5181 11.1168 12.4995C11.114 12.4903 11.112 12.4832 11.1107 12.4786L11.1094 12.4736L11.1091 12.4726C11.1091 12.4726 11.1091 12.4727 11.1091 12.4726" fill="#393939"/>
<circle cx="8.64286" cy="11.6429" r="0.642857" fill="#393939"/>
<circle cx="8.83571" cy="11.45" r="0.192857" fill="white"/>
<circle cx="14.8572" cy="11.6429" r="0.642857" fill="#393939"/>
<circle cx="15.05" cy="11.45" r="0.192857" fill="white"/>
</g>
<defs>
<clipPath id="clip0_6_1558">
<rect width="24" height="24" fill="white"/>
</clipPath>
</defs>
</svg>
