<svg width="24" height="24" viewBox="0 0 24 24" fill="none" xmlns="http://www.w3.org/2000/svg">
<path fill-rule="evenodd" clip-rule="evenodd" d="M12.7072 1.69289L12.0001 2.39999L11.293 1.69288C11.4805 1.50535 11.7349 1.39999 12.0001 1.39999C12.2653 1.4 12.5197 1.50535 12.7072 1.69289ZM12.0001 3.85357C11.8847 3.97934 11.7577 4.11933 11.6213 4.27229C10.9609 5.01239 10.0824 6.0503 9.2062 7.24405C8.32783 8.44074 7.46583 9.77505 6.82686 11.1087C6.18213 12.4544 5.8 13.7267 5.8 14.8187C5.8 17.95 8.52499 20.6 12.0001 20.6C15.4751 20.6 18.2 17.9501 18.2 14.8187C18.2 13.7267 17.8179 12.4544 17.1732 11.1087C16.5342 9.77504 15.6723 8.44073 14.7939 7.24404C13.9177 6.05029 13.0392 5.01238 12.3789 4.27228C12.2424 4.11933 12.1155 3.97934 12.0001 3.85357ZM12.0001 2.39999C11.293 1.69288 11.2932 1.6927 11.293 1.69288L11.2858 1.70015L11.2683 1.71782C11.2532 1.73301 11.2316 1.755 11.2038 1.78351C11.1481 1.84051 11.0677 1.92359 10.966 2.03051C10.7628 2.24429 10.4743 2.55372 10.1289 2.94078C9.43924 3.71377 8.51772 4.80202 7.59391 6.06062C6.67226 7.31626 5.73423 8.76046 5.02318 10.2446C4.31788 11.7167 3.8 13.3014 3.8 14.8187C3.8 19.1658 7.53502 22.6 12.0001 22.6C16.4651 22.6 20.2 19.1658 20.2 14.8187C20.2 13.3014 19.6821 11.7167 18.9769 10.2446C18.2658 8.76047 17.3278 7.31628 16.4062 6.06063C15.4824 4.80203 14.5609 3.71378 13.8713 2.94079C13.5259 2.55373 13.2375 2.2443 13.0342 2.03052C12.9325 1.9236 12.8521 1.84052 12.7965 1.78352C12.7686 1.75501 12.747 1.73302 12.732 1.71783L12.7145 1.70016L12.7095 1.69521L12.7081 1.69372C12.7079 1.69354 12.7072 1.69289 12.0001 2.39999ZM15.9044 13.4475C16.4305 13.6156 16.7207 14.1784 16.5525 14.7044C15.9159 16.6965 14.3257 18.2664 12.3215 18.9469C11.7986 19.1245 11.2307 18.8445 11.0531 18.3215C10.8755 17.7985 11.1555 17.2307 11.6785 17.0531C13.1095 16.5672 14.2126 15.4563 14.6475 14.0956C14.8156 13.5695 15.3784 13.2793 15.9044 13.4475Z" fill="white"/>
</svg>
