<svg width="24" height="24" viewBox="0 0 24 24" fill="none" xmlns="http://www.w3.org/2000/svg">
<path fill-rule="evenodd" clip-rule="evenodd" d="M11.2929 2.22623C11.6834 1.8357 12.3166 1.8357 12.7071 2.22623L15.9071 5.42623C16.2976 5.81675 16.2976 6.44992 15.9071 6.84044C15.5166 7.23097 14.8834 7.23097 14.4929 6.84044L13 5.34755V10.4C13 10.9523 12.5523 11.4 12 11.4C11.4477 11.4 11 10.9523 11 10.4V5.34755L9.5071 6.84044C9.11658 7.23097 8.48341 7.23097 8.09289 6.84044C7.70236 6.44992 7.70236 5.81675 8.09289 5.42623L11.2929 2.22623ZM3.82622 9.69289C4.21674 9.30237 4.84991 9.30237 5.24043 9.69289L7.12605 11.5785C7.51658 11.969 7.51658 12.6022 7.12605 12.9927C6.73553 13.3832 6.10236 13.3832 5.71184 12.9927L3.82622 11.1071C3.4357 10.7166 3.4357 10.0834 3.82622 9.69289ZM17.9787 9.69289C18.3692 9.30237 19.0024 9.30237 19.3929 9.69289C19.7834 10.0834 19.7834 10.7166 19.3929 11.1071L17.5073 12.9927C17.1168 13.3832 16.4836 13.3832 16.0931 12.9927C15.7026 12.6022 15.7026 11.969 16.0931 11.5785L17.9787 9.69289ZM12 14.6C10.4904 14.6 9.26666 15.8238 9.26666 17.3333C9.26666 17.8856 8.81895 18.3333 8.26666 18.3333C7.71438 18.3333 7.26666 17.8856 7.26666 17.3333C7.26666 14.7192 9.38585 12.6 12 12.6C14.6141 12.6 16.7333 14.7192 16.7333 17.3333C16.7333 17.8856 16.2856 18.3333 15.7333 18.3333C15.181 18.3333 14.7333 17.8856 14.7333 17.3333C14.7333 15.8238 13.5096 14.6 12 14.6ZM1.39999 17.3333C1.39999 16.781 1.84771 16.3333 2.39999 16.3333H5.06666C5.61895 16.3333 6.06666 16.781 6.06666 17.3333C6.06666 17.8856 5.61895 18.3333 5.06666 18.3333H2.39999C1.84771 18.3333 1.39999 17.8856 1.39999 17.3333ZM17.9333 17.3333C17.9333 16.781 18.381 16.3333 18.9333 16.3333H21.6C22.1523 16.3333 22.6 16.781 22.6 17.3333C22.6 17.8856 22.1523 18.3333 21.6 18.3333H18.9333C18.381 18.3333 17.9333 17.8856 17.9333 17.3333ZM1.39999 21.0667C1.39999 20.5144 1.84771 20.0667 2.39999 20.0667H21.6C22.1523 20.0667 22.6 20.5144 22.6 21.0667C22.6 21.619 22.1523 22.0667 21.6 22.0667H2.39999C1.84771 22.0667 1.39999 21.619 1.39999 21.0667Z" fill="white"/>
</svg>
