<svg width="24" height="24" viewBox="0 0 24 24" fill="none" xmlns="http://www.w3.org/2000/svg">
<path fill-rule="evenodd" clip-rule="evenodd" d="M12.0008 1.93333C12.5531 1.93333 13.0008 2.38105 13.0008 2.93333L13.0008 7.98579L14.4937 6.49289C14.8842 6.10237 15.5174 6.10237 15.9079 6.49289C16.2984 6.88342 16.2984 7.51658 15.9079 7.90711L12.7079 11.1071C12.3174 11.4976 11.6842 11.4976 11.2937 11.1071L8.09368 7.90711C7.70315 7.51658 7.70315 6.88342 8.09368 6.49289C8.4842 6.10237 9.11736 6.10237 9.50789 6.49289L11.0008 7.98579L11.0008 2.93333C11.0008 2.38105 11.4485 1.93333 12.0008 1.93333ZM3.82623 9.69289C4.21675 9.30237 4.84992 9.30237 5.24044 9.69289L7.12606 11.5785C7.51658 11.969 7.51658 12.6022 7.12606 12.9927C6.73554 13.3832 6.10237 13.3832 5.71185 12.9927L3.82623 11.1071C3.4357 10.7166 3.4357 10.0834 3.82623 9.69289ZM17.9787 9.69289C18.3692 9.30237 19.0024 9.30237 19.3929 9.69289C19.7834 10.0834 19.7834 10.7166 19.3929 11.1071L17.5073 12.9927C17.1168 13.3832 16.4836 13.3832 16.0931 12.9927C15.7026 12.6022 15.7026 11.969 16.0931 11.5785L17.9787 9.69289ZM12 14.6C10.4904 14.6 9.26667 15.8238 9.26667 17.3333C9.26667 17.8856 8.81895 18.3333 8.26667 18.3333C7.71438 18.3333 7.26667 17.8856 7.26667 17.3333C7.26667 14.7192 9.38585 12.6 12 12.6C14.6142 12.6 16.7333 14.7192 16.7333 17.3333C16.7333 17.8856 16.2856 18.3333 15.7333 18.3333C15.1811 18.3333 14.7333 17.8856 14.7333 17.3333C14.7333 15.8238 13.5096 14.6 12 14.6ZM1.4 17.3333C1.4 16.781 1.84772 16.3333 2.4 16.3333H5.06667C5.61895 16.3333 6.06667 16.781 6.06667 17.3333C6.06667 17.8856 5.61895 18.3333 5.06667 18.3333H2.4C1.84772 18.3333 1.4 17.8856 1.4 17.3333ZM17.9333 17.3333C17.9333 16.781 18.3811 16.3333 18.9333 16.3333H21.6C22.1523 16.3333 22.6 16.781 22.6 17.3333C22.6 17.8856 22.1523 18.3333 21.6 18.3333H18.9333C18.3811 18.3333 17.9333 17.8856 17.9333 17.3333ZM1.4 21.0667C1.4 20.5144 1.84772 20.0667 2.4 20.0667H21.6C22.1523 20.0667 22.6 20.5144 22.6 21.0667C22.6 21.619 22.1523 22.0667 21.6 22.0667H2.4C1.84772 22.0667 1.4 21.619 1.4 21.0667Z" fill="white"/>
</svg>
