<svg width="24" height="24" viewBox="0 0 24 24" fill="none" xmlns="http://www.w3.org/2000/svg">
<path fill-rule="evenodd" clip-rule="evenodd" d="M8.59999 4.79843C8.59999 2.91981 10.1231 1.39999 12 1.39999C13.8778 1.39999 15.4 2.92223 15.4 4.79999V13.5302C15.7998 13.9471 16.185 14.4581 16.4942 15.0088C16.8834 15.702 17.2 16.5438 17.2 17.4C17.2 20.2719 14.8719 22.6 12 22.6C9.12811 22.6 6.79999 20.2719 6.79999 17.4C6.79999 15.8272 7.49894 14.4179 8.59999 13.4655V4.79843ZM12 3.39999C11.2259 3.39999 10.6 4.02608 10.6 4.79843V13.9528C10.6 14.2797 10.4402 14.586 10.1721 14.773C9.34062 15.353 8.79999 16.3134 8.79999 17.4C8.79999 19.1673 10.2327 20.6 12 20.6C13.7673 20.6 15.2 19.1673 15.2 17.4C15.2 17.0123 15.0462 16.515 14.7502 15.9879C14.4596 15.4702 14.0779 15.0066 13.7331 14.6979C13.5211 14.5082 13.4 14.2373 13.4 13.9528V4.79999C13.4 4.0268 12.7732 3.39999 12 3.39999ZM11 17.4C11 16.8477 11.4477 16.4 12 16.4H12.0562C12.6085 16.4 13.0562 16.8477 13.0562 17.4C13.0562 17.9523 12.6085 18.4 12.0562 18.4H12C11.4477 18.4 11 17.9523 11 17.4Z" fill="white"/>
</svg>
