<svg width="24" height="24" viewBox="0 0 24 24" fill="none" xmlns="http://www.w3.org/2000/svg">
<path fill-rule="evenodd" clip-rule="evenodd" d="M5.6 4.79843C5.6 2.91981 7.12309 1.39999 9 1.39999C10.8778 1.39999 12.4 2.92223 12.4 4.79999V13.5302C12.7998 13.9471 13.185 14.4581 13.4942 15.0088C13.8834 15.702 14.2 16.5438 14.2 17.4C14.2 20.2719 11.8719 22.6 9 22.6C6.12812 22.6 3.8 20.2719 3.8 17.4C3.8 15.8272 4.49896 14.4179 5.6 13.4655V4.79843ZM9 3.39999C8.22595 3.39999 7.6 4.02608 7.6 4.79843V13.9528C7.6 14.2797 7.44022 14.586 7.1721 14.773C6.34064 15.353 5.8 16.3134 5.8 17.4C5.8 19.1673 7.23269 20.6 9 20.6C10.7673 20.6 12.2 19.1673 12.2 17.4C12.2 17.0123 12.0462 16.515 11.7503 15.9879C11.4596 15.4702 11.0779 15.0066 10.7331 14.6979C10.5211 14.5082 10.4 14.2373 10.4 13.9528V4.79999C10.4 4.0268 9.7732 3.39999 9 3.39999ZM20.5 6.79842C21.0523 6.79842 21.5 7.24614 21.5 7.79842C21.5 8.35071 21.0523 8.79842 20.5 8.79842L14.5 8.79843C13.9477 8.79843 13.5 8.35071 13.5 7.79843C13.5 7.24614 13.9477 6.79843 14.5 6.79843L20.5 6.79842ZM8 17.4C8 16.8477 8.44772 16.4 9 16.4H9.05625C9.60854 16.4 10.0563 16.8477 10.0563 17.4C10.0563 17.9523 9.60854 18.4 9.05625 18.4H9C8.44772 18.4 8 17.9523 8 17.4Z" fill="white"/>
</svg>
