<svg width="24" height="24" viewBox="0 0 24 24" fill="none" xmlns="http://www.w3.org/2000/svg">
<path fill-rule="evenodd" clip-rule="evenodd" d="M11.2491 4.24475C10.6852 4.24475 10.1722 4.60473 9.95102 5.16407C9.74797 5.67768 9.16701 5.92943 8.6534 5.72638C8.1398 5.52333 7.88805 4.94236 8.0911 4.42876C8.5899 3.16709 9.80082 2.24475 11.2491 2.24475C13.1668 2.24475 14.6567 3.84881 14.6567 5.74625C14.6567 7.6437 13.1668 9.24775 11.2491 9.24775H2.39999C1.84771 9.24775 1.39999 8.80004 1.39999 8.24775C1.39999 7.69547 1.84771 7.24775 2.39999 7.24775H11.2491C11.9908 7.24775 12.6567 6.61189 12.6567 5.74625C12.6567 4.88061 11.9908 4.24475 11.2491 4.24475ZM19.0985 7.997C18.4726 7.997 17.9339 8.38021 17.7086 8.92862C17.4988 9.43949 16.9145 9.68352 16.4037 9.47368C15.8928 9.26383 15.6488 8.67958 15.8586 8.16872C16.3813 6.89612 17.6337 5.997 19.0985 5.997C21.0323 5.997 22.6 7.56468 22.6 9.4985C22.6 11.4323 21.0323 13 19.0985 13H4.90149C4.34921 13 3.90149 12.5523 3.90149 12C3.90149 11.4477 4.34921 11 4.90149 11H19.0985C19.9277 11 20.6 10.3278 20.6 9.4985C20.6 8.66925 19.9277 7.997 19.0985 7.997ZM6.403 15.7523C6.403 15.2 6.85071 14.7523 7.403 14.7523H16.2521C18.1698 14.7523 19.6598 16.3563 19.6598 18.2538C19.6598 20.1512 18.1698 21.7553 16.2521 21.7553C14.8038 21.7553 13.5929 20.8329 13.0941 19.5712C12.891 19.0576 13.1428 18.4767 13.6564 18.2736C14.17 18.0706 14.751 18.3223 14.954 18.8359C15.1752 19.3953 15.6882 19.7553 16.2521 19.7553C16.9938 19.7553 17.6598 19.1194 17.6598 18.2538C17.6598 17.3881 16.9938 16.7523 16.2521 16.7523H7.403C6.85071 16.7523 6.403 16.3045 6.403 15.7523Z" fill="white"/>
</svg>
