<svg width="2588" height="173" viewBox="0 0 2588 173" fill="none" xmlns="http://www.w3.org/2000/svg">
<path fill-rule="evenodd" clip-rule="evenodd" d="M0.00524902 0C1.34233 95.7736 79.3964 173 175.488 173C220.382 173 261.339 156.143 292.375 128.414C311.332 141.402 334.272 149 358.988 149C385.565 149 410.091 140.214 429.817 125.387C470.085 155.302 519.97 173 573.988 173C628.936 173 679.607 154.687 720.23 123.831C749.795 143.523 785.301 155 823.488 155C853.56 155 881.969 147.883 907.124 135.241C944.646 159.148 989.199 173 1036.99 173C1099.16 173 1155.86 149.553 1198.72 111.018C1226.15 137.038 1263.21 153 1304.01 153C1342.97 153 1378.54 138.432 1405.55 114.444C1426.91 135.795 1456.41 149 1488.99 149C1515.57 149 1540.09 140.214 1559.82 125.387C1600.09 155.302 1649.97 173 1703.99 173C1758.94 173 1809.61 154.687 1850.23 123.831C1879.79 143.523 1915.3 155 1953.49 155C1983.56 155 2011.97 147.883 2037.12 135.241C2074.65 159.148 2119.2 173 2166.99 173C2229.16 173 2285.86 149.553 2328.72 111.018C2356.15 137.038 2393.21 153 2434.01 153C2518.5 153 2587.01 84.4999 2587.01 0.000305176C2587.01 0.000203451 2587.01 0.000101725 2587.01 0H0.00524902Z" fill="#F3F4FF"/>
</svg>
