<svg width="32" height="32" viewBox="0 0 32 32" fill="none" xmlns="http://www.w3.org/2000/svg">
<circle cx="16" cy="16" r="16" fill="#9A9FFE"/>
<path d="M9 16.998L10.1133 8.09354C10.1914 7.46866 10.7227 7 11.3555 7H17.9414C18.5273 7 19 7.47256 19 8.05839C19 8.18336 18.9766 8.31224 18.9336 8.42941L17.125 13.2488H22.5664C23.3555 13.2488 24 13.8893 24 14.6821C24 14.9711 23.9141 15.2523 23.75 15.4905L16.2422 26.4649C16.0117 26.8008 15.6328 27 15.2305 27H15.1172C14.5039 27 14.0039 26.5001 14.0039 25.8869C14.0039 25.7971 14.0156 25.7073 14.0391 25.6175L15.875 18.2478H10.25C9.55859 18.2478 9 17.6893 9 16.998Z" fill="#FEDF2C"/>
</svg>
